<?xml version="1.0" encoding="iso-8859-1"?>
<!-- Uploaded to: SVG Repo, www.svgrepo.com, Generator: SVG Repo Mixer Tools -->
<svg fill="#000000" version="1.1" id="Layer_1" xmlns="http://www.w3.org/2000/svg" xmlns:xlink="http://www.w3.org/1999/xlink" 
	 viewBox="0 0 496 496" xml:space="preserve">
<g>
	<g>
		<g>
			<path d="M0,496h496V224H0V496z M16,240h464v240H16V240z"/>
			<path d="M32,464h256V256H32V464z M48,272h224v176H48V272z"/>
			<path d="M448,320c0-35.288-28.712-64-64-64c-35.288,0-64,28.712-64,64c0,35.288,28.712,64,64,64C419.288,384,448,355.288,448,320
				z M384,368c-26.472,0-48-21.528-48-48s21.528-48,48-48s48,21.528,48,48S410.472,368,384,368z"/>
			<path d="M312,464h64v-64h-64V464z M328,416h32v32h-32V416z"/>
			<path d="M392,464h64v-64h-64V464z M408,416h32v32h-32V416z"/>
			<path d="M448,80h-24V40c0-22.056-17.944-40-40-40H272c-22.056,0-40,17.944-40,40v40h-24c-26.472,0-48,21.528-48,48v32
				c0,26.472,21.528,48,48,48h40V88v-8V40c0-13.232,10.768-24,24-24h112c13.232,0,24,10.768,24,24v40v8v120h40
				c26.472,0,48-21.528,48-48v-32C496,101.528,474.472,80,448,80z M232,192h-24c-17.648,0-32-14.352-32-32v-32
				c0-14.872,10.232-27.288,24-30.864V176h16V96h16V192z M480,160c0,17.648-14.352,32-32,32h-24V96h16v80h16V97.136
				c13.76,3.576,24,15.992,24,30.864V160z"/>
			<path d="M112,208c17.648,0,32-14.352,32-32V80h-24V57.448l44.512,7.416L177.36,39.16L148,0h-16.528L104,45.784V80H80v96
				C80,193.648,94.352,208,112,208z M140.296,16.392l18.336,24.456l-3.152,6.296l-30.576-5.104L140.296,16.392z M96,96h32v80
				c0,8.824-7.184,16-16,16c-8.824,0-16-7.176-16-16V96z"/>
			<path d="M64,80H40V64h16V24C56,10.768,45.232,0,32,0S8,10.768,8,24v40h16v16H0v128h64V80z M24,24c0-4.416,3.584-8,8-8
				s8,3.584,8,8v24H24V24z M48,192H16V96h32V192z"/>
			<polygon points="255.76,358.064 238.248,288 217.968,288 204.248,336.008 198.248,312 177.752,312 164.224,366.128 150.416,304 
				129.584,304 116.384,363.392 102.68,288 82.232,288 64.416,341.472 79.584,346.528 90.888,312.624 105.32,392 126.416,392 
				140,330.872 153.584,392 174.248,392 188,336.984 193.752,360 214.032,360 227.752,311.992 240.24,361.936 			"/>
			<rect x="64" y="416" width="160" height="16"/>
			<rect x="240" y="416" width="16" height="16"/>
		</g>
	</g>
</g>
</svg>