<?xml version="1.0" encoding="iso-8859-1"?>
<!-- Uploaded to: SVG Repo, www.svgrepo.com, Generator: SVG Repo Mixer Tools -->
<svg fill="#000000" version="1.1" id="Layer_1" xmlns="http://www.w3.org/2000/svg" xmlns:xlink="http://www.w3.org/1999/xlink" 
	 viewBox="0 0 496 496" xml:space="preserve">
<g>
	<g>
		<g>
			<path d="M496,24c0-13.232-10.768-24-24-24H248c-13.232,0-24,10.768-24,24v128H0v16h224v16H0v16h112.4
				c2.024,17.952,17.112,32,35.6,32c18.48,0,33.576-14.048,35.592-32H224v40.576c-2.656-0.328-5.32-0.576-8-0.576
				c-30.872,0-56,21.528-56,48s25.128,48,56,48c2.68,0,5.344-0.24,8-0.576V360c0,10.416,1.288,20.52,3.512,30.272
				c-11.768-3.296-21.96-11.16-28.064-22.128l-6.976-12.552C180.28,333.632,157.112,320,132,320s-48.28,13.632-60.48,35.584
				l-6.976,12.552C56.368,382.856,40.824,392,24,392h-8H0v16h16h8h208.912c2.08,5.496,4.408,10.872,7.152,16H0v16h250.264
				c24.76,33.872,64.664,56,109.736,56c45.072,0,84.976-22.128,109.736-56H496v-16h-16.064c2.752-5.128,5.072-10.504,7.152-16H496
				v-16h-3.96c2.496-10.28,3.96-20.96,3.96-32V24z M148,216c-9.664,0-17.736-6.88-19.6-16h39.192
				C165.736,209.12,157.664,216,148,216z M224,319.256c-2.648,0.456-5.32,0.744-8,0.744c-22.056,0-40-14.352-40-32s17.944-32,40-32
				c2.68,0,5.352,0.288,8,0.736V319.256z M65.504,392c5.112-4.568,9.592-9.912,13.024-16.096l6.976-12.552
				C94.88,346.488,112.696,336,132,336s37.12,10.488,46.488,27.352l6.976,12.552c3.432,6.176,7.92,11.52,13.032,16.096H65.504z
				 M480,360c0,66.168-53.832,120-120,120c-66.176,0-120-53.832-120-120V24c0-4.416,3.584-8,8-8h224c4.416,0,8,3.584,8,8V360z"/>
			<path d="M256,184v8v16h16v-16h16v16h16v-16h16v16h16v-16h16v16h16v-16h16v16h16v-16h16v16h16v-16h16v16h16v-16v-8V32H256V184z
				 M272,48h176v128H272V48z"/>
			<path d="M56,320c30.872,0,56-25.128,56-56s-25.128-56-56-56S0,233.128,0,264S25.128,320,56,320z M56,224
				c22.056,0,40,17.944,40,40c0,22.056-17.944,40-40,40c-22.056,0-40-17.944-40-40C16,241.944,33.944,224,56,224z"/>
			<path d="M56,288v-16c-4.416,0-8-3.584-8-8c0-4.416,3.584-8,8-8v-16c-13.232,0-24,10.768-24,24S42.768,288,56,288z"/>
			<rect x="288" y="144" width="64" height="16"/>
			<rect x="368" y="144" width="64" height="16"/>
			<path d="M256,304h96v-80h-96V304z M272,240h64v48h-64V240z"/>
			<path d="M368,304h96v-80h-96V304z M384,240h64v48h-64V240z"/>
			<path d="M256,400h96v-80h-96V400z M272,336h64v48h-64V336z"/>
			<path d="M368,400h96v-80h-96V400z M384,336h64v48h-64V336z"/>
		</g>
	</g>
</g>
</svg>