<?xml version="1.0" encoding="iso-8859-1"?>
<!-- Uploaded to: SVG Repo, www.svgrepo.com, Generator: SVG Repo Mixer Tools -->
<svg fill="#000000" height="800px" width="800px" version="1.1" id="Layer_1" xmlns="http://www.w3.org/2000/svg" xmlns:xlink="http://www.w3.org/1999/xlink" 
	 viewBox="0 0 496 496" xml:space="preserve">
<g>
	<g>
		<g>
			<path d="M408,24h-8h-14.472C377.016,9.264,361.24,0,344,0s-33.016,9.264-41.528,24H288h-8h-88v26.104
				C186.872,48.776,181.536,48,176,48c-35.288,0-64,28.712-64,64c0,19.12,8.472,36.264,21.808,48H32c-17.648,0-32,14.352-32,32
				s14.352,32,32,32h80v272h128V392h256V24H408z M296,40h16.608l2.096-4.792C319.816,23.536,331.312,16,344,16
				s24.184,7.536,29.296,19.208L375.392,40H392v32h-96V40z M408,88V72h40v272H240V224h80c17.648,0,32-14.352,32-32
				c0-5.856-1.696-11.272-4.448-16H424v-72H256v56h-16V72h40v16H408z M320,160h-48v-40h136v40H320z M336,192c0,8.824-7.184,16-16,16
				h-32v-32h32C328.816,176,336,183.176,336,192z M208,40h72v16h-56v13.808c-4.576-5.2-9.976-9.648-16-13.152V40z M128,112
				c0-26.472,21.528-48,48-48s48,21.528,48,48s-21.528,48-48,48S128,138.472,128,112z M224,154.192V160h-5.808
				C220.248,158.184,222.192,156.248,224,154.192z M191.352,176L176,195.192L160.648,176H191.352z M64,208H32
				c-8.824,0-16-7.176-16-16c0-8.824,7.176-16,16-16h32V208z M168,480h-40v-16h40V480z M224,480h-40v-16h40V480z M224,448h-40V344
				h-16v104h-40V312h96V448z M224,208v88h-96v-88H80v-32h60.152L176,220.808L211.848,176H272v32H224z M480,376H240v-16h224V56h-56
				V40h72V376z"/>
			<path d="M296,248c0,6.096,2.36,11.608,6.12,15.848l-13.392,17.856c-2.712-1.072-5.64-1.704-8.728-1.704
				c-13.232,0-24,10.768-24,24s10.768,24,24,24s24-10.768,24-24c0-4.288-1.224-8.256-3.2-11.744l15.472-20.632
				c1.224,0.192,2.456,0.376,3.728,0.376c3.224,0,6.288-0.664,9.096-1.816l17.92,22.4C345.152,296,344,299.848,344,304
				c0,13.232,10.768,24,24,24s24-10.768,24-24c0-5.288-1.776-10.136-4.68-14.112l18.064-42.152c0.872,0.096,1.72,0.264,2.616,0.264
				c13.232,0,24-10.768,24-24s-10.768-24-24-24s-24,10.768-24,24c0,6.56,2.656,12.504,6.936,16.84l-17.12,39.952
				c-1.872-0.464-3.8-0.792-5.816-0.792c-3.224,0-6.288,0.656-9.096,1.816l-17.92-22.4C342.848,256,344,252.152,344,248
				c0-13.232-10.768-24-24-24S296,234.768,296,248z M280,312c-4.416,0-8-3.584-8-8c0-4.416,3.584-8,8-8c4.416,0,8,3.584,8,8
				C288,308.416,284.416,312,280,312z M408,216c4.416,0,8,3.584,8,8s-3.584,8-8,8c-4.416,0-8-3.584-8-8S403.584,216,408,216z
				 M368,296c4.416,0,8,3.584,8,8c0,4.416-3.584,8-8,8c-4.416,0-8-3.584-8-8C360,299.584,363.584,296,368,296z M320,240
				c4.416,0,8,3.584,8,8s-3.584,8-8,8c-4.416,0-8-3.584-8-8C312,243.584,315.584,240,320,240z"/>
		</g>
	</g>
</g>
</svg>