<?xml version="1.0" encoding="utf-8"?>
<!-- Generator: Adobe Illustrator 22.1.0, SVG Export Plug-In . SVG Version: 6.00 Build 0)  -->
<svg version="1.1" id="Layer_1" xmlns="http://www.w3.org/2000/svg" xmlns:xlink="http://www.w3.org/1999/xlink" x="0px" y="0px"
	 viewBox="0 0 512 512" style="enable-background:new 0 0 512 512;" xml:space="preserve">
<g>
	<path d="M424.8,87.2h-22.8c14.4,24.9,22.8,53.6,22.8,84.4c0,93-75.7,168.8-168.8,168.8S87.2,264.7,87.2,171.6
		c0-30.8,8.4-59.5,22.8-84.4H87.2c-31,0-56.2,25.2-56.2,56.2v281.2c0,31,25.2,56.2,56.2,56.2h337.5c31,0,56.2-25.2,56.2-56.2V143.5
		C481,112.5,455.8,87.2,424.8,87.2z M256,312.2c77.7,0,140.6-63,140.6-140.6S333.7,31,256,31S115.4,94,115.4,171.6
		S178.3,312.2,256,312.2z M255.7,178.7l29.5-68.9c3.1-7.2,11.4-10.5,18.5-7.4c7.1,3.1,10.4,11.3,7.4,18.5l-29.6,69
		c5.9,6.3,9.6,14.6,9.6,23.9c0,19.4-15.7,35.2-35.2,35.2s-35.2-15.7-35.2-35.2C220.8,194.5,236.5,178.9,255.7,178.7z"/>
</g>
</svg>
