<?xml version="1.0" encoding="iso-8859-1"?>
<!-- Uploaded to: SVG Repo, www.svgrepo.com, Generator: SVG Repo Mixer Tools -->
<svg fill="#000000" height="800px" width="800px" version="1.1" id="Layer_1" xmlns="http://www.w3.org/2000/svg" xmlns:xlink="http://www.w3.org/1999/xlink" 
	 viewBox="0 0 496 496" xml:space="preserve">
<g>
	<g>
		<g>
			<path d="M82.192,46.12C102.496,42.056,123.296,40,144,40h40V0h-16v24h-24c-21.76,0-43.608,2.168-64.944,6.432L61.808,33.88
				C41.496,37.944,20.704,40,0,40v16c21.76,0,43.608-2.168,64.944-6.432L82.192,46.12z"/>
			<path d="M434.192,33.88l-17.248-3.456C395.608,26.168,373.76,24,352,24h-24V0h-16v40h40c20.704,0,41.496,2.056,61.808,6.12
				l17.248,3.456C452.392,53.832,474.24,56,496,56V40C475.296,40,454.496,37.944,434.192,33.88z"/>
			<path d="M64,176H0v16h64c4.416,0,8,3.584,8,8v296h16V200C88,186.768,77.232,176,64,176z"/>
			<path d="M408,200v296h16V200c0-4.416,3.584-8,8-8h64v-16h-64C418.768,176,408,186.768,408,200z"/>
			<path d="M368,168c13.232,0,24-10.768,24-24s-10.768-24-24-24h-96v-17.016C285.792,99.432,296,86.88,296,72
				c0-17.648-14.352-32-32-32c-5.64,0-11.152,1.52-16,4.368C243.152,41.52,237.64,40,232,40c-17.648,0-32,14.352-32,32
				c0,14.88,10.208,27.432,24,30.984V120h-96c-13.232,0-24,10.768-24,24s10.768,24,24,24h96v16h-96c-13.232,0-24,10.768-24,24
				s10.768,24,24,24h96v16h-96c-13.232,0-24,10.768-24,24s10.768,24,24,24h96v16h-96c-13.232,0-24,10.768-24,24s10.768,24,24,24h96
				v25.016c-13.792,3.552-24,16.104-24,30.984c0,17.648,14.352,32,32,32c5.64,0,11.152-1.52,16-4.368
				c4.848,2.848,10.36,4.368,16,4.368c17.648,0,32-14.352,32-32c0-14.88-10.208-27.432-24-30.984V360h96c13.232,0,24-10.768,24-24
				s-10.768-24-24-24h-96v-16h96c13.232,0,24-10.768,24-24s-10.768-24-24-24h-96v-16h96c13.232,0,24-10.768,24-24s-10.768-24-24-24
				h-96v-16H368z M368,136c4.416,0,8,3.584,8,8s-3.584,8-8,8h-96v-16H368z M128,152c-4.416,0-8-3.584-8-8s3.584-8,8-8h96v16H128z
				 M128,216c-4.416,0-8-3.584-8-8s3.584-8,8-8h96v16H128z M128,280c-4.416,0-8-3.584-8-8c0-4.416,3.584-8,8-8h96v16H128z M128,344
				c-4.416,0-8-3.584-8-8c0-4.416,3.584-8,8-8h96v16H128z M368,328c4.416,0,8,3.584,8,8c0,4.416-3.584,8-8,8h-96v-16H368z M368,264
				c4.416,0,8,3.584,8,8c0,4.416-3.584,8-8,8h-96v-16H368z M368,200c4.416,0,8,3.584,8,8s-3.584,8-8,8h-96v-16H368z M264,88h-8v312
				h8c8.816,0,16,7.176,16,16c0,8.824-7.184,16-16,16c-3.88,0-7.656-1.488-10.648-4.168L248,423.008l-5.352,4.824
				C239.656,430.512,235.88,432,232,432c-8.824,0-16-7.176-16-16c0-8.824,7.176-16,16-16h8V88h-8c-8.824,0-16-7.184-16-16
				s7.176-16,16-16c3.88,0,7.656,1.488,10.648,4.168L248,64.992l5.352-4.816C256.344,57.488,260.12,56,264,56
				c8.816,0,16,7.184,16,16S272.816,88,264,88z"/>
		</g>
	</g>
</g>
</svg>